<?xml version="1.0" encoding="iso-8859-1"?>
<!-- Generator: Adobe Illustrator 19.0.0, SVG Export Plug-In . SVG Version: 6.00 Build 0)  -->
<svg version="1.1" id="Layer_1" xmlns="http://www.w3.org/2000/svg" xmlns:xlink="http://www.w3.org/1999/xlink" x="0px" y="0px"
	 viewBox="0 0 504.124 504.124" style="enable-background:new 0 0 504.124 504.124;" xml:space="preserve">
<path style="fill:#D07C40;" d="M0,200.862L252.062,51.2l252.062,149.662v220.554H0V200.862z"/>
<path style="fill:#EFEFEF;" d="M55.138,11.815h393.846c8.665,0,15.754,7.089,15.754,15.754v275.692
	c0,8.665-7.089,15.754-15.754,15.754H55.138c-8.665,0-15.754-7.089-15.754-15.754V27.569C39.385,18.905,46.474,11.815,55.138,11.815
	z"/>
<path style="fill:#26A6D1;" d="M415.902,43.323l25.206-31.508h7.877c8.665,0,15.754,7.089,15.754,15.754v15.754H415.902z
	 M211.102,43.323l25.206-31.508h55.138L266.24,43.323H211.102z M39.385,43.323V27.569c0-8.665,7.089-15.754,15.754-15.754h39.385
	L69.317,43.323H39.385z"/>
<path style="fill:#EFC75E;" d="M504.123,468.677c0,12.997-10.634,23.631-23.631,23.631H23.631C10.634,492.309,0,481.674,0,468.677
	V200.862l252.062,110.277l252.062-110.277v267.815H504.123z"/>
<path style="fill:#E8C15B;" d="M504.123,468.677c0,12.997-10.634,23.631-23.631,23.631H23.631C10.634,492.309,0,481.674,0,468.677
	v-47.262l504.123-220.554V468.677z"/>
<path style="fill:#D6D9DB;" d="M160.295,151.631l3.151,16.542l-25.206-39.385l-35.446,55.138c-0.394,5.12,22.449,9.058,50.806,9.058
	s51.2-3.938,51.2-9.058l-31.114-46.08C173.686,137.846,160.295,151.631,160.295,151.631z M163.446,129.969
	c5.514,0,9.846-4.332,9.846-9.846s-4.332-9.846-9.846-9.846s-9.846,4.332-9.846,9.846S157.932,129.969,163.446,129.969z
	 M244.185,126.031h157.538c4.332,0,7.877-3.545,7.877-7.877s-3.545-7.877-7.877-7.877H244.185c-4.332,0-7.877,3.545-7.877,7.877
	S239.852,126.031,244.185,126.031z M401.723,141.785H244.185c-4.332,0-7.877,3.545-7.877,7.877s3.545,7.877,7.877,7.877h157.538
	c4.332,0,7.877-3.545,7.877-7.877C409.6,145.329,406.055,141.785,401.723,141.785z M362.338,173.292H244.185
	c-4.332,0-7.877,3.545-7.877,7.877s3.545,7.877,7.877,7.877h118.154c4.332,0,7.877-3.545,7.877-7.877
	C370.215,176.837,366.671,173.292,362.338,173.292z"/>
<path style="fill:#E2574C;" d="M313.502,43.323l25.206-31.508h55.138L368.64,43.323H313.502z M108.702,43.323l25.206-31.508h55.138
	L163.84,43.323H108.702z"/>
<g>
</g>
<g>
</g>
<g>
</g>
<g>
</g>
<g>
</g>
<g>
</g>
<g>
</g>
<g>
</g>
<g>
</g>
<g>
</g>
<g>
</g>
<g>
</g>
<g>
</g>
<g>
</g>
<g>
</g>
</svg>
